<svg xmlns="http://www.w3.org/2000/svg" xmlns:xlink="http://www.w3.org/1999/xlink" viewBox="0 0 59.00725799999999 59.00725799999999" height="59.00725799999999" width="59.00725799999999" data-background-color="#521635" preserveAspectRatio="xMidYMid meet" id="tight-bounds"><g><svg viewBox="0 0 59.00725799999999 59.00725799999999" height="59.00725799999999" width="59.00725799999999"><g><svg viewBox="0 0 59.00725799999999 59.00725799999999" height="59.00725799999999" width="59.00725799999999"><g><svg viewBox="0 0 59.00725799999999 59.00725799999999" height="59.00725799999999" width="59.00725799999999"><g id="textblocktransform"><svg viewBox="0 0 59.00725799999999 59.00725799999999" height="59.00725799999999" width="59.00725799999999" id="textblock"><g><svg viewBox="0 0 59.00725799999999 59.00725799999999" height="59.00725799999999" width="59.00725799999999"><g><svg viewBox="0 0 59.00725799999999 59.00725799999999" height="59.00725799999999" width="59.00725799999999"><g><svg xmlns="http://www.w3.org/2000/svg" xml:space="preserve" viewBox="5 5 90 90" x="0" y="0" height="59.00725799999999" width="59.00725799999999" class="icon-icon-0" data-fill-palette-color="accent" id="icon-0"/></g></svg></g></svg></g></svg></g></svg></g></svg></g></svg><mask id="1b05c0ea-1078-4ae4-bb08-fa7be415b48f"><svg xmlns:xlink="http://www.w3.org/1999/xlink" viewBox="0 0 59.00725799999999 59.00725799999999" height="59.00725799999999" width="59.00725799999999" data-background-color="#521635" preserveAspectRatio="xMidYMid meet" id="SvgjsSvg1050"><g><svg viewBox="0 0 59.00725799999999 59.00725799999999" height="59.00725799999999" width="59.00725799999999"><g><svg viewBox="0 0 59.00725799999999 59.00725799999999" height="59.00725799999999" width="59.00725799999999"><g><svg viewBox="0 0 59.00725799999999 59.00725799999999" height="59.00725799999999" width="59.00725799999999"><g id="SvgjsG1049"><svg viewBox="0 0 59.00725799999999 59.00725799999999" height="59.00725799999999" width="59.00725799999999" id="SvgjsSvg1048"><g><svg viewBox="0 0 59.00725799999999 59.00725799999999" height="59.00725799999999" width="59.00725799999999"><g><svg viewBox="0 0 59.00725799999999 59.00725799999999" height="59.00725799999999" width="59.00725799999999"><g><svg xmlns="http://www.w3.org/2000/svg" xml:space="preserve" viewBox="5 5 90 90" x="0" y="0" height="59.00725799999999" width="59.00725799999999" class="icon-icon-0" data-fill-palette-color="accent" id="SvgjsSvg1047"><path d="M53.75 5C42.731 5 32.373 9.291 24.582 17.082l-7.5 7.5C9.291 32.373 5 42.731 5 53.75s4.291 21.377 12.082 29.168S35.231 95 46.25 95s21.377-4.291 29.168-12.082l7.5-7.5C90.709 67.627 95 57.269 95 46.25s-4.291-21.377-12.082-29.168S64.769 5 53.75 5m18.133 74.383c-14.135 14.133-37.131 14.133-51.266 0-14.134-14.134-14.134-37.132 0-51.266 7.067-7.066 16.35-10.601 25.633-10.601s18.565 3.534 25.633 10.601c14.134 14.134 14.134 37.132 0 51.266m14.975-18.389a42 42 0 0 0 0.642-7.244c0-11.019-4.291-21.377-12.082-29.168S57.269 12.5 46.25 12.5c-2.455 0-4.875 0.225-7.243 0.642a36.3 36.3 0 0 1 14.743-3.126c9.283 0 18.565 3.534 25.633 10.601 10.898 10.899 13.384 27.065 7.475 40.377" fill="white"/><path d="M46.25 22.5a31.07 31.07 0 0 0-17.51 5.38 2.4 2.4 0 0 0-0.246 0.175C20.349 33.701 15 43.11 15 53.75 15 70.981 29.019 85 46.25 85c10.641 0 20.052-5.35 25.698-13.497q0.094-0.117 0.172-0.241A31.08 31.08 0 0 0 77.5 53.75c0-17.231-14.019-31.25-31.25-31.25m0 57.5C31.775 80 20 68.225 20 53.75c0-4.236 1.015-8.238 2.805-11.784a31.5 31.5 0 0 0-0.305 4.284c0 17.231 14.019 31.25 31.25 31.25 1.443 0 2.872-0.111 4.284-0.305A26.1 26.1 0 0 1 46.25 80m21.921-11.834A26.1 26.1 0 0 1 53.75 72.5c-14.475 0-26.25-11.775-26.25-26.25a26.1 26.1 0 0 1 4.334-14.421A26.1 26.1 0 0 1 46.25 27.5c14.475 0 26.25 11.775 26.25 26.25a26.1 26.1 0 0 1-4.329 14.416" fill="white"/></svg></g></svg></g></svg></g></svg></g></svg></g></svg></g></svg></g><defs><mask/></defs></svg></mask><linearGradient x1="0.054" x2="0.941" y1="0.5" y2="0.5" id="867bd434-0417-4bbb-889f-daf1fb1dec35"><stop stop-color="#eaa79c" offset="0"/><stop stop-color="#f2e8cb" offset="0.498"/><stop stop-color="#eaa79c" offset="1"/></linearGradient><rect width="59.00725799999999" height="59.00725799999999" fill="url(#867bd434-0417-4bbb-889f-daf1fb1dec35)" mask="url(#1b05c0ea-1078-4ae4-bb08-fa7be415b48f)" data-fill-palette-color="accent"/></g><defs><mask/></defs></svg>