<svg xmlns="http://www.w3.org/2000/svg" version="1.1" xmlns:xlink="http://www.w3.org/1999/xlink" xmlns:svgjs="http://svgjs.dev/svgjs" width="2000" height="702" viewBox="0 0 2000 702"><g transform="matrix(1,0,0,1,-1.2121212121212466,0.5506181672502066)"><svg viewBox="0 0 396 139" data-background-color="#521635" preserveAspectRatio="xMidYMid meet" height="702" width="2000" xmlns="http://www.w3.org/2000/svg" xmlns:xlink="http://www.w3.org/1999/xlink"><g id="tight-bounds" transform="matrix(1,0,0,1,0.2400000000000091,-0.10902553454099007)"><svg viewBox="0 0 395.52 139.21805106908198" height="139.21805106908198" width="395.52"><g><svg viewBox="0 0 395.52 139.21805106908198" height="139.21805106908198" width="395.52"><g><svg viewBox="0 0 672.7841565370315 236.81153687106016" height="139.21805106908198" width="395.52"><g transform="matrix(1,0,0,1,277.2641565370315,32.72865668767908)"><svg viewBox="0 0 395.52 171.354223495702" height="171.354223495702" width="395.52"><g id="textblocktransform"><svg viewBox="0 0 395.52 171.354223495702" height="171.354223495702" width="395.52" id="textblock"><g><svg viewBox="0 0 395.52 171.354223495702" height="171.354223495702" width="395.52"><g transform="matrix(1,0,0,1,0,0)"><svg width="395.52" viewBox="3 -37.5 87.24 37.8" height="171.354223495702" data-palette-color="url(#81cbefea-4666-4999-920f-7170c150b9fb)"></svg></g></svg></g></svg></g></svg></g><g><svg viewBox="0 0 236.81153687106016 236.81153687106016" height="236.81153687106016" width="236.81153687106016"><g><svg xmlns="http://www.w3.org/2000/svg" xmlns:xlink="http://www.w3.org/1999/xlink" version="1.1" x="0" y="0" viewBox="5 5 90 90" style="enable-background:new 0 0 100 100;" xml:space="preserve" height="236.81153687106016" width="236.81153687106016" class="icon-icon-0" data-fill-palette-color="accent" id="icon-0"></svg></g></svg></g></svg></g></svg></g><defs></defs><mask id="5b5e13eb-3f10-4a93-b2d8-c08da9712e4e"><g id="SvgjsG1486"><svg viewBox="0 0 395.52 139.21805106908198" height="139.21805106908198" width="395.52"><g><svg viewBox="0 0 395.52 139.21805106908198" height="139.21805106908198" width="395.52"><g><svg viewBox="0 0 672.7841565370315 236.81153687106016" height="139.21805106908198" width="395.52"><g transform="matrix(1,0,0,1,277.2641565370315,32.72865668767908)"><svg viewBox="0 0 395.52 171.354223495702" height="171.354223495702" width="395.52"><g id="SvgjsG1485"><svg viewBox="0 0 395.52 171.354223495702" height="171.354223495702" width="395.52" id="SvgjsSvg1484"><g><svg viewBox="0 0 395.52 171.354223495702" height="171.354223495702" width="395.52"><g transform="matrix(1,0,0,1,0,0)"><svg width="395.52" viewBox="3 -37.5 87.24 37.8" height="171.354223495702" data-palette-color="url(#81cbefea-4666-4999-920f-7170c150b9fb)"><path d="M5.05-34.8L5.05-34.8 15.15-34.5 25.25-34.8Q26.05-34.8 26.68-34.27 27.3-33.75 27.3-32.85 27.3-31.95 26.68-31.43 26.05-30.9 25.25-30.9L25.25-30.9 15.15-31.2Q13.85-31.2 10.95-31.1L10.95-31.1Q10.95-31 10.78-27.75 10.6-24.5 10.55-21.25L10.55-21.25Q12.45-21.05 14.9-19.83 17.35-18.6 18.48-18.6 19.6-18.6 20.5-19.03 21.4-19.45 21.7-20L21.7-20Q22.4-21.35 23.4-21.35L23.4-21.35Q24.6-21.35 24.6-19.88 24.6-18.4 22.75-16.48 20.9-14.55 18.43-14.55 15.95-14.55 13.68-16.1 11.4-17.65 10.55-17.8L10.55-17.8Q10.55-12.55 10.78-7.7 11-2.85 11-2.08 11-1.3 10.33-0.5 9.65 0.3 8.6 0.3 7.55 0.3 6.88-0.5 6.2-1.3 6.2-2.18 6.2-3.05 6.4-7.45 6.6-11.85 6.65-16.35L6.65-16.35Q6.55-16.25 6.35-16.03 6.15-15.8 6.05-15.7 5.95-15.6 5.75-15.45 5.55-15.3 5.4-15.2L5.4-15.2Q5.15-15.05 4.8-15.05L4.8-15.05Q3.7-15.05 3.7-16.4L3.7-16.4Q3.7-17.2 4.55-18.3 5.4-19.4 6.65-20.2L6.65-20.2Q6.65-23 6.2-30.9L6.2-30.9 5.05-30.9Q4.25-30.9 3.63-31.43 3-31.95 3-32.85 3-33.75 3.63-34.27 4.25-34.8 5.05-34.8ZM37.45-9.95L37.45-9.95 31.5-10.45Q30.65-10.45 30.15-10.3L30.15-10.3Q30.45-7.45 32.57-5.55 34.7-3.65 37.6-3.65L37.6-3.65Q40.4-3.65 42.65-5.7L42.65-5.7Q43.45-6.4 43.85-6.4 44.25-6.4 44.55-6.1 44.85-5.8 44.85-5.45L44.85-5.45Q44.85-4 42.02-1.85 39.2 0.3 35.62 0.3 32.05 0.3 29.42-2.6 26.8-5.5 26.8-9.8L26.8-9.8Q26.8-15.3 30.95-19.05 35.1-22.8 40.1-22.8L40.1-22.8Q42.2-22.8 43.52-22.08 44.85-21.35 44.85-20.23 44.85-19.1 44.17-18.4 43.5-17.7 42.85-17.7 42.2-17.7 40.62-18.3 39.05-18.9 37.6-18.9L37.6-18.9Q34.9-18.9 32.92-17.28 30.95-15.65 30.3-13.25L30.3-13.25 37.2-13.65Q39.5-13.65 39.5-11.85L39.5-11.85Q39.5-9.95 37.45-9.95ZM49.14-3.65L49.14-3.65Q49.14-23.1 48.89-26.9L48.89-26.9Q48.45-33.8 48.45-34.95 48.45-36.1 49.12-36.8 49.8-37.5 50.74-37.5 51.7-37.5 52.3-36.8 52.89-36.1 52.89-35.05L52.89-35.05Q52.89-31.9 52.64-26.5L52.64-26.5Q52.14-13.8 52.14-7.6L52.14-7.6Q52.14-6.1 53.12-4.73 54.09-3.35 54.09-2.25 54.09-1.15 53.34-0.43 52.59 0.3 51.64 0.3L51.64 0.3Q49.14 0.3 49.14-3.65ZM60.39-3.65L60.39-3.65Q60.39-9.95 60.14-14.7 59.89-19.45 59.89-20.3 59.89-21.15 60.57-21.98 61.24-22.8 62.19-22.8 63.14-22.8 63.74-22.03 64.34-21.25 64.34-19.78 64.34-18.3 63.99-14.83 63.64-11.35 63.64-7.6L63.64-7.6Q63.64-6.1 64.27-4.73 64.89-3.35 64.89-2.23 64.89-1.1 64.27-0.4 63.64 0.3 62.57 0.3 61.49 0.3 60.94-0.9 60.39-2.1 60.39-3.65ZM61.99-28.45Q60.89-28.45 60.24-29.05 59.59-29.65 59.59-30.8 59.59-31.95 60.39-32.77 61.19-33.6 62.29-33.6 63.39-33.6 64.07-32.98 64.74-32.35 64.74-31.2 64.74-30.05 63.92-29.25 63.09-28.45 61.99-28.45ZM74.67-1.3Q74.29-0.75 73.59-0.23 72.89 0.3 72.09 0.3 71.29 0.3 70.72-0.28 70.14-0.85 70.14-1.73 70.14-2.6 70.84-3.45 71.54-4.3 72.89-5.43 74.24-6.55 74.99-7.35 75.74-8.15 78.34-11.5L78.34-11.5Q75.24-15.1 72.99-17.3 70.74-19.5 70.74-20.75L70.74-20.75Q70.74-21.55 71.31-22.18 71.89-22.8 72.79-22.8L72.79-22.8Q74.29-22.8 75.59-21.05L75.59-21.05Q77.69-18.2 80.59-14.45L80.59-14.45Q85.54-21.05 86.27-21.93 86.99-22.8 87.84-22.8L87.84-22.8Q89.49-22.8 89.49-21.15L89.49-21.15Q89.49-20.05 88.14-18.9L88.14-18.9Q85.89-16.85 82.29-12.25L82.29-12.25Q86.54-6.75 88.99-4.2L88.99-4.2Q90.24-2.8 90.24-1.88 90.24-0.95 89.72-0.33 89.19 0.3 88.39 0.3L88.39 0.3Q86.89 0.3 85.29-2.35L85.29-2.35Q83.49-5.15 80.09-9.35L80.09-9.35Q77.94-6.35 76.49-4.1 75.04-1.85 74.67-1.3Z" opacity="1" transform="matrix(1,0,0,1,0,0)" fill="white" class="wordmark-text-0" id="SvgjsPath1483"></path></svg></g></svg></g></svg></g></svg></g><g><svg viewBox="0 0 236.81153687106016 236.81153687106016" height="236.81153687106016" width="236.81153687106016"><g><svg xmlns="http://www.w3.org/2000/svg" xmlns:xlink="http://www.w3.org/1999/xlink" version="1.1" x="0" y="0" viewBox="5 5 90 90" style="enable-background:new 0 0 100 100;" xml:space="preserve" height="236.81153687106016" width="236.81153687106016" class="icon-icon-0" data-fill-palette-color="accent" id="SvgjsSvg1482"><path d="M53.75 5C42.731 5 32.373 9.291 24.582 17.082l-7.5 7.5C9.291 32.373 5 42.731 5 53.75s4.291 21.377 12.082 29.168S35.231 95 46.25 95s21.377-4.291 29.168-12.082l7.5-7.5C90.709 67.627 95 57.269 95 46.25s-4.291-21.377-12.082-29.168S64.769 5 53.75 5zM71.883 79.383c-14.135 14.133-37.131 14.133-51.266 0-14.134-14.134-14.134-37.132 0-51.266 7.067-7.066 16.35-10.601 25.633-10.601s18.565 3.534 25.633 10.601C86.017 42.251 86.017 65.249 71.883 79.383zM86.858 60.994c0.417-2.369 0.642-4.788 0.642-7.244 0-11.019-4.291-21.377-12.082-29.168S57.269 12.5 46.25 12.5c-2.455 0-4.875 0.225-7.243 0.642 4.68-2.078 9.71-3.126 14.743-3.126 9.283 0 18.565 3.534 25.633 10.601C90.281 31.516 92.767 47.682 86.858 60.994z" fill="black"></path><path d="M46.25 22.5c-6.484 0-12.512 1.986-17.51 5.38-0.086 0.051-0.166 0.113-0.246 0.175C20.349 33.701 15 43.11 15 53.75 15 70.981 29.019 85 46.25 85c10.641 0 20.052-5.35 25.698-13.497 0.061-0.079 0.121-0.157 0.172-0.241C75.514 66.263 77.5 60.234 77.5 53.75 77.5 36.519 63.481 22.5 46.25 22.5zM46.25 80C31.775 80 20 68.225 20 53.75c0-4.236 1.015-8.238 2.805-11.784-0.194 1.412-0.305 2.841-0.305 4.284 0 17.231 14.019 31.25 31.25 31.25 1.443 0 2.872-0.111 4.284-0.305C54.488 78.985 50.486 80 46.25 80zM68.171 68.166C63.882 70.995 58.911 72.5 53.75 72.5c-14.475 0-26.25-11.775-26.25-26.25 0-5.161 1.505-10.132 4.334-14.421 4.141-2.732 9.095-4.329 14.416-4.329 14.475 0 26.25 11.775 26.25 26.25C72.5 59.072 70.904 64.026 68.171 68.166z" fill="black"></path></svg></g></svg></g></svg></g></svg></g><defs><mask></mask></defs></svg><rect width="395.52" height="139.21805106908198" fill="black" stroke="none" visibility="hidden"></rect></g></mask><linearGradient x1="0.054" x2="0.941" y1="0.5" y2="0.5" id="81cbefea-4666-4999-920f-7170c150b9fb"><stop stop-color="#eaa79c" offset="0"></stop><stop stop-color="#f2e8cb" offset="0.498"></stop><stop stop-color="#eaa79c" offset="1"></stop></linearGradient><rect width="395.52" height="139.21805106908198" fill="url(#81cbefea-4666-4999-920f-7170c150b9fb)" mask="url(#5b5e13eb-3f10-4a93-b2d8-c08da9712e4e)" data-fill-palette-color="primary"></rect><mask id="4b280b4d-08a0-4254-b5ed-1f5341adeccd"><g id="SvgjsG1495"><svg viewBox="0 0 395.52 139.21805106908198" height="139.21805106908198" width="395.52"><g><svg viewBox="0 0 395.52 139.21805106908198" height="139.21805106908198" width="395.52"><g><svg viewBox="0 0 672.7841565370315 236.81153687106016" height="139.21805106908198" width="395.52"><g transform="matrix(1,0,0,1,277.2641565370315,32.72865668767908)"><svg viewBox="0 0 395.52 171.354223495702" height="171.354223495702" width="395.52"><g id="SvgjsG1494"><svg viewBox="0 0 395.52 171.354223495702" height="171.354223495702" width="395.52" id="SvgjsSvg1493"><g><svg viewBox="0 0 395.52 171.354223495702" height="171.354223495702" width="395.52"><g transform="matrix(1,0,0,1,0,0)"><svg width="395.52" viewBox="3 -37.5 87.24 37.8" height="171.354223495702" data-palette-color="url(#81cbefea-4666-4999-920f-7170c150b9fb)"></svg></g></svg></g></svg></g></svg></g><g><svg viewBox="0 0 236.81153687106016 236.81153687106016" height="236.81153687106016" width="236.81153687106016"><g><svg xmlns="http://www.w3.org/2000/svg" xmlns:xlink="http://www.w3.org/1999/xlink" version="1.1" x="0" y="0" viewBox="5 5 90 90" style="enable-background:new 0 0 100 100;" xml:space="preserve" height="236.81153687106016" width="236.81153687106016" class="icon-icon-0" data-fill-palette-color="accent" id="SvgjsSvg1492"><path d="M53.75 5C42.731 5 32.373 9.291 24.582 17.082l-7.5 7.5C9.291 32.373 5 42.731 5 53.75s4.291 21.377 12.082 29.168S35.231 95 46.25 95s21.377-4.291 29.168-12.082l7.5-7.5C90.709 67.627 95 57.269 95 46.25s-4.291-21.377-12.082-29.168S64.769 5 53.75 5zM71.883 79.383c-14.135 14.133-37.131 14.133-51.266 0-14.134-14.134-14.134-37.132 0-51.266 7.067-7.066 16.35-10.601 25.633-10.601s18.565 3.534 25.633 10.601C86.017 42.251 86.017 65.249 71.883 79.383zM86.858 60.994c0.417-2.369 0.642-4.788 0.642-7.244 0-11.019-4.291-21.377-12.082-29.168S57.269 12.5 46.25 12.5c-2.455 0-4.875 0.225-7.243 0.642 4.68-2.078 9.71-3.126 14.743-3.126 9.283 0 18.565 3.534 25.633 10.601C90.281 31.516 92.767 47.682 86.858 60.994z" fill="white"></path><path d="M46.25 22.5c-6.484 0-12.512 1.986-17.51 5.38-0.086 0.051-0.166 0.113-0.246 0.175C20.349 33.701 15 43.11 15 53.75 15 70.981 29.019 85 46.25 85c10.641 0 20.052-5.35 25.698-13.497 0.061-0.079 0.121-0.157 0.172-0.241C75.514 66.263 77.5 60.234 77.5 53.75 77.5 36.519 63.481 22.5 46.25 22.5zM46.25 80C31.775 80 20 68.225 20 53.75c0-4.236 1.015-8.238 2.805-11.784-0.194 1.412-0.305 2.841-0.305 4.284 0 17.231 14.019 31.25 31.25 31.25 1.443 0 2.872-0.111 4.284-0.305C54.488 78.985 50.486 80 46.25 80zM68.171 68.166C63.882 70.995 58.911 72.5 53.75 72.5c-14.475 0-26.25-11.775-26.25-26.25 0-5.161 1.505-10.132 4.334-14.421 4.141-2.732 9.095-4.329 14.416-4.329 14.475 0 26.25 11.775 26.25 26.25C72.5 59.072 70.904 64.026 68.171 68.166z" fill="white"></path></svg></g></svg></g></svg></g></svg></g><defs><mask></mask></defs><mask><g id="SvgjsG1491"><svg viewBox="0 0 395.52 139.21805106908198" height="139.21805106908198" width="395.52"><g><svg viewBox="0 0 395.52 139.21805106908198" height="139.21805106908198" width="395.52"><g><svg viewBox="0 0 672.7841565370315 236.81153687106016" height="139.21805106908198" width="395.52"><g transform="matrix(1,0,0,1,277.2641565370315,32.72865668767908)"><svg viewBox="0 0 395.52 171.354223495702" height="171.354223495702" width="395.52"><g id="SvgjsG1490"><svg viewBox="0 0 395.52 171.354223495702" height="171.354223495702" width="395.52" id="SvgjsSvg1489"><g><svg viewBox="0 0 395.52 171.354223495702" height="171.354223495702" width="395.52"><g transform="matrix(1,0,0,1,0,0)"><svg width="395.52" viewBox="3 -37.5 87.24 37.8" height="171.354223495702" data-palette-color="url(#81cbefea-4666-4999-920f-7170c150b9fb)"><path d="M5.05-34.8L5.05-34.8 15.15-34.5 25.25-34.8Q26.05-34.8 26.68-34.27 27.3-33.75 27.3-32.85 27.3-31.95 26.68-31.43 26.05-30.9 25.25-30.9L25.25-30.9 15.15-31.2Q13.85-31.2 10.95-31.1L10.95-31.1Q10.95-31 10.78-27.75 10.6-24.5 10.55-21.25L10.55-21.25Q12.45-21.05 14.9-19.83 17.35-18.6 18.48-18.6 19.6-18.6 20.5-19.03 21.4-19.45 21.7-20L21.7-20Q22.4-21.35 23.4-21.35L23.4-21.35Q24.6-21.35 24.6-19.88 24.6-18.4 22.75-16.48 20.9-14.55 18.43-14.55 15.95-14.55 13.68-16.1 11.4-17.65 10.55-17.8L10.55-17.8Q10.55-12.55 10.78-7.7 11-2.85 11-2.08 11-1.3 10.33-0.5 9.65 0.3 8.6 0.3 7.55 0.3 6.88-0.5 6.2-1.3 6.2-2.18 6.2-3.05 6.4-7.45 6.6-11.85 6.65-16.35L6.65-16.35Q6.55-16.25 6.35-16.03 6.15-15.8 6.05-15.7 5.95-15.6 5.75-15.45 5.55-15.3 5.4-15.2L5.4-15.2Q5.15-15.05 4.8-15.05L4.8-15.05Q3.7-15.05 3.7-16.4L3.7-16.4Q3.7-17.2 4.55-18.3 5.4-19.4 6.65-20.2L6.65-20.2Q6.65-23 6.2-30.9L6.2-30.9 5.05-30.9Q4.25-30.9 3.63-31.43 3-31.95 3-32.85 3-33.75 3.63-34.27 4.25-34.8 5.05-34.8ZM37.45-9.95L37.45-9.95 31.5-10.45Q30.65-10.45 30.15-10.3L30.15-10.3Q30.45-7.45 32.57-5.55 34.7-3.65 37.6-3.65L37.6-3.65Q40.4-3.65 42.65-5.7L42.65-5.7Q43.45-6.4 43.85-6.4 44.25-6.4 44.55-6.1 44.85-5.8 44.85-5.45L44.85-5.45Q44.85-4 42.02-1.85 39.2 0.3 35.62 0.3 32.05 0.3 29.42-2.6 26.8-5.5 26.8-9.8L26.8-9.8Q26.8-15.3 30.95-19.05 35.1-22.8 40.1-22.8L40.1-22.8Q42.2-22.8 43.52-22.08 44.85-21.35 44.85-20.23 44.85-19.1 44.17-18.4 43.5-17.7 42.85-17.7 42.2-17.7 40.62-18.3 39.05-18.9 37.6-18.9L37.6-18.9Q34.9-18.9 32.92-17.28 30.95-15.65 30.3-13.25L30.3-13.25 37.2-13.65Q39.5-13.65 39.5-11.85L39.5-11.85Q39.5-9.95 37.45-9.95ZM49.14-3.65L49.14-3.65Q49.14-23.1 48.89-26.9L48.89-26.9Q48.45-33.8 48.45-34.95 48.45-36.1 49.12-36.8 49.8-37.5 50.74-37.5 51.7-37.5 52.3-36.8 52.89-36.1 52.89-35.05L52.89-35.05Q52.89-31.9 52.64-26.5L52.64-26.5Q52.14-13.8 52.14-7.6L52.14-7.6Q52.14-6.1 53.12-4.73 54.09-3.35 54.09-2.25 54.09-1.15 53.34-0.43 52.59 0.3 51.64 0.3L51.64 0.3Q49.14 0.3 49.14-3.65ZM60.39-3.65L60.39-3.65Q60.39-9.95 60.14-14.7 59.89-19.45 59.89-20.3 59.89-21.15 60.57-21.98 61.24-22.8 62.19-22.8 63.14-22.8 63.74-22.03 64.34-21.25 64.34-19.78 64.34-18.3 63.99-14.83 63.64-11.35 63.64-7.6L63.64-7.6Q63.64-6.1 64.27-4.73 64.89-3.35 64.89-2.23 64.89-1.1 64.27-0.4 63.64 0.3 62.57 0.3 61.49 0.3 60.94-0.9 60.39-2.1 60.39-3.65ZM61.99-28.45Q60.89-28.45 60.24-29.05 59.59-29.65 59.59-30.8 59.59-31.95 60.39-32.77 61.19-33.6 62.29-33.6 63.39-33.6 64.07-32.98 64.74-32.35 64.74-31.2 64.74-30.05 63.92-29.25 63.09-28.45 61.99-28.45ZM74.67-1.3Q74.29-0.75 73.59-0.23 72.89 0.3 72.09 0.3 71.29 0.3 70.72-0.28 70.14-0.85 70.14-1.73 70.14-2.6 70.84-3.45 71.54-4.3 72.89-5.43 74.24-6.55 74.99-7.35 75.74-8.15 78.34-11.5L78.34-11.5Q75.24-15.1 72.99-17.3 70.74-19.5 70.74-20.75L70.74-20.75Q70.74-21.55 71.31-22.18 71.89-22.8 72.79-22.8L72.79-22.8Q74.29-22.8 75.59-21.05L75.59-21.05Q77.69-18.2 80.59-14.45L80.59-14.45Q85.54-21.05 86.27-21.93 86.99-22.8 87.84-22.8L87.84-22.8Q89.49-22.8 89.49-21.15L89.49-21.15Q89.49-20.05 88.14-18.9L88.14-18.9Q85.89-16.85 82.29-12.25L82.29-12.25Q86.54-6.75 88.99-4.2L88.99-4.2Q90.24-2.8 90.24-1.88 90.24-0.95 89.72-0.33 89.19 0.3 88.39 0.3L88.39 0.3Q86.89 0.3 85.29-2.35L85.29-2.35Q83.49-5.15 80.09-9.35L80.09-9.35Q77.94-6.35 76.49-4.1 75.04-1.85 74.67-1.3Z" opacity="1" transform="matrix(1,0,0,1,0,0)" fill="black" class="wordmark-text-0" id="SvgjsPath1488"></path></svg></g></svg></g></svg></g></svg></g><g><svg viewBox="0 0 236.81153687106016 236.81153687106016" height="236.81153687106016" width="236.81153687106016"><g><svg xmlns="http://www.w3.org/2000/svg" xmlns:xlink="http://www.w3.org/1999/xlink" version="1.1" x="0" y="0" viewBox="5 5 90 90" style="enable-background:new 0 0 100 100;" xml:space="preserve" height="236.81153687106016" width="236.81153687106016" class="icon-icon-0" data-fill-palette-color="accent" id="SvgjsSvg1487"><path d="M53.75 5C42.731 5 32.373 9.291 24.582 17.082l-7.5 7.5C9.291 32.373 5 42.731 5 53.75s4.291 21.377 12.082 29.168S35.231 95 46.25 95s21.377-4.291 29.168-12.082l7.5-7.5C90.709 67.627 95 57.269 95 46.25s-4.291-21.377-12.082-29.168S64.769 5 53.75 5zM71.883 79.383c-14.135 14.133-37.131 14.133-51.266 0-14.134-14.134-14.134-37.132 0-51.266 7.067-7.066 16.35-10.601 25.633-10.601s18.565 3.534 25.633 10.601C86.017 42.251 86.017 65.249 71.883 79.383zM86.858 60.994c0.417-2.369 0.642-4.788 0.642-7.244 0-11.019-4.291-21.377-12.082-29.168S57.269 12.5 46.25 12.5c-2.455 0-4.875 0.225-7.243 0.642 4.68-2.078 9.71-3.126 14.743-3.126 9.283 0 18.565 3.534 25.633 10.601C90.281 31.516 92.767 47.682 86.858 60.994z" fill="black"></path><path d="M46.25 22.5c-6.484 0-12.512 1.986-17.51 5.38-0.086 0.051-0.166 0.113-0.246 0.175C20.349 33.701 15 43.11 15 53.75 15 70.981 29.019 85 46.25 85c10.641 0 20.052-5.35 25.698-13.497 0.061-0.079 0.121-0.157 0.172-0.241C75.514 66.263 77.5 60.234 77.5 53.75 77.5 36.519 63.481 22.5 46.25 22.5zM46.25 80C31.775 80 20 68.225 20 53.75c0-4.236 1.015-8.238 2.805-11.784-0.194 1.412-0.305 2.841-0.305 4.284 0 17.231 14.019 31.25 31.25 31.25 1.443 0 2.872-0.111 4.284-0.305C54.488 78.985 50.486 80 46.25 80zM68.171 68.166C63.882 70.995 58.911 72.5 53.75 72.5c-14.475 0-26.25-11.775-26.25-26.25 0-5.161 1.505-10.132 4.334-14.421 4.141-2.732 9.095-4.329 14.416-4.329 14.475 0 26.25 11.775 26.25 26.25C72.5 59.072 70.904 64.026 68.171 68.166z" fill="black"></path></svg></g></svg></g></svg></g></svg></g><defs><mask></mask></defs></svg><rect width="395.52" height="139.21805106908198" fill="black" stroke="none" visibility="hidden"></rect></g></mask></svg><rect width="395.52" height="139.21805106908198" fill="black" stroke="none" visibility="hidden"></rect></g></mask><linearGradient x1="0.054" x2="0.941" y1="0.5" y2="0.5" id="fd54e077-9f42-4610-ae94-75ee5d4fdf71"><stop stop-color="#eaa79c" offset="0"></stop><stop stop-color="#f2e8cb" offset="0.498"></stop><stop stop-color="#eaa79c" offset="1"></stop></linearGradient><rect width="395.52" height="139.21805106908198" fill="url(#fd54e077-9f42-4610-ae94-75ee5d4fdf71)" mask="url(#4b280b4d-08a0-4254-b5ed-1f5341adeccd)" data-fill-palette-color="accent"></rect></svg><rect width="395.52" height="139.21805106908198" fill="none" stroke="none" visibility="hidden"></rect></g></svg></g></svg>